<!-- Generated by IcoMoon.io -->
<svg version="1.1" xmlns="http://www.w3.org/2000/svg" width="32" height="32" viewBox="0 0 32 32">
<title>kb-essential-bag</title>
<path d="M28.72 26.88l-1.84-18.4c0-0.32-0.32-0.56-0.56-0.56h-4.56v-0.72c0-3.040-2.8-5.6-6.32-5.6s-6.32 2.48-6.32 5.6v0.8h-4.24c-0.32 0-0.56 0.24-0.56 0.56l-2 18.32c-0.48 3.040 2.72 4.32 4.48 4.56h16.96c1.76 0 3.040-0.56 3.92-1.52 1.2-1.28 1.12-2.96 1.040-3.040zM10.4 7.2c0-2.4 2.32-4.4 5.12-4.4s5.12 2 5.12 4.4v0.8h-10.24v-0.8zM26.88 29.12c-0.64 0.72-1.68 1.12-3.040 1.12h-16.88c-0.4-0.080-3.84-0.72-3.44-3.2l1.92-17.84h3.76v2.8c0 0.32 0.24 0.64 0.64 0.64s0.56-0.32 0.56-0.64v-2.8h10.16v2.72c0 0.32 0.24 0.64 0.64 0.64s0.64-0.24 0.64-0.64v-2.72h4l1.76 17.84c0 0 0.080 1.2-0.72 2.080z"></path>
</svg>
